<?xml version="1.0" standalone="no"?>
<!DOCTYPE svg PUBLIC "-//W3C//DTD SVG 20010904//EN"
 "http://www.w3.org/TR/2001/REC-SVG-20010904/DTD/svg10.dtd">
<svg version="1.0" xmlns="http://www.w3.org/2000/svg"
 width="300.000000pt" height="300.000000pt" viewBox="0 0 300.000000 300.000000"
 preserveAspectRatio="xMidYMid meet">

<g transform="translate(0.000000,300.000000) scale(0.100000,-0.100000)"
fill="#000000" stroke="none">
<path d="M2666 2864 c-10 -25 -6 -31 5 -10 10 16 26 4 153 -120 l141 -139
-140 143 c-77 78 -143 142 -146 142 -4 0 -10 -7 -13 -16z"/>
<path d="M2065 2500 c83 -85 152 -154 155 -152 2 1 -65 71 -150 155 l-155 152
150 -155z"/>
<path d="M1896 2625 c-9 -26 -7 -32 5 -12 6 10 9 21 6 23 -2 3 -7 -2 -11 -11z"/>
<path d="M2532 2575 c-30 -62 -27 -71 4 -12 14 27 24 51 22 53 -3 2 -14 -17
-26 -41z"/>
<path d="M2491 2483 c-10 -26 -10 -27 4 -9 8 11 15 23 15 28 0 15 -7 8 -19
-19z"/>
<path d="M2916 2455 c-9 -26 -7 -32 5 -12 6 10 9 21 6 23 -2 3 -7 -2 -11 -11z"/>
<path d="M1127 2385 c-24 -50 -20 -58 4 -11 l21 39 151 -149 152 -149 -150
153 c-82 83 -152 152 -156 152 -3 0 -13 -16 -22 -35z"/>
<path d="M1757 2325 c-24 -50 -20 -58 4 -12 11 22 19 41 17 43 -3 2 -12 -12
-21 -31z"/>
<path d="M2195 2319 c-4 -6 -5 -12 -2 -15 2 -3 7 2 10 11 7 17 1 20 -8 4z"/>
<path d="M2146 2215 c-9 -26 -7 -32 5 -12 6 10 9 21 6 23 -2 3 -7 -2 -11 -11z"/>
<path d="M2782 2165 c-30 -62 -27 -71 4 -12 14 27 24 51 22 53 -3 2 -14 -17
-26 -41z"/>
<path d="M533 2044 c116 -118 147 -154 142 -170 -6 -18 -6 -18 5 0 11 16 -4
35 -141 170 l-154 151 148 -151z"/>
<path d="M352 2135 c-30 -62 -27 -71 4 -12 14 27 24 51 22 53 -3 2 -14 -17
-26 -41z"/>
<path d="M2317 2114 c-37 -74 -33 -83 4 -10 17 32 29 60 27 62 -2 2 -16 -21
-31 -52z"/>
<path d="M992 2095 c-17 -37 -14 -45 4 -12 9 16 14 31 11 33 -2 2 -9 -7 -15
-21z"/>
<path d="M1425 2079 c-9 -17 -15 -33 -13 -35 3 -2 12 12 21 31 21 43 13 47 -8
4z"/>
<path d="M316 2053 c-6 -14 -5 -15 5 -6 7 7 10 15 7 18 -3 3 -9 -2 -12 -12z"/>
<path d="M2706 2005 c-9 -26 -7 -32 5 -12 6 10 9 21 6 23 -2 3 -7 -2 -11 -11z"/>
<path d="M1377 1975 c-24 -50 -20 -58 4 -12 11 22 19 41 17 43 -3 2 -12 -12
-21 -31z"/>
<path d="M1595 1979 c-4 -6 -5 -12 -2 -15 2 -3 7 2 10 11 7 17 1 20 -8 4z"/>
<path d="M907 1915 c-9 -19 -15 -35 -12 -35 7 0 37 61 33 66 -3 2 -12 -12 -21
-31z"/>
<path d="M1997 1894 c-37 -74 -33 -83 4 -10 17 32 29 60 27 62 -2 2 -16 -21
-31 -52z"/>
<path d="M2226 1925 c-9 -26 -7 -32 5 -12 6 10 9 21 6 23 -2 3 -7 -2 -11 -11z"/>
<path d="M1542 1865 c-30 -62 -27 -71 4 -12 14 27 24 51 22 53 -3 2 -14 -17
-26 -41z"/>
<path d="M226 1865 c-9 -26 -7 -32 5 -12 6 10 9 21 6 23 -2 3 -7 -2 -11 -11z"/>
<path d="M650 1829 c-7 -11 -10 -23 -7 -25 2 -2 9 7 15 21 14 30 7 33 -8 4z"/>
<path d="M2615 1809 c-9 -17 -15 -33 -13 -35 3 -2 12 12 21 31 21 43 13 47 -8
4z"/>
<path d="M350 1655 c85 -85 157 -155 160 -155 3 0 -65 70 -150 155 -85 85
-157 155 -160 155 -3 0 65 -70 150 -155z"/>
<path d="M826 1745 c-9 -26 -7 -32 5 -12 6 10 9 21 6 23 -2 3 -7 -2 -11 -11z"/>
<path d="M2145 1749 c-4 -6 -5 -12 -2 -15 2 -3 7 2 10 11 7 17 1 20 -8 4z"/>
<path d="M597 1715 c-24 -50 -20 -58 4 -12 11 22 19 41 17 43 -3 2 -12 -12
-21 -31z"/>
<path d="M141 1693 c-12 -25 -20 -47 -18 -49 2 -2 12 14 22 36 13 28 21 37 27
28 6 -10 8 -9 8 4 0 34 -17 26 -39 -19z"/>
<path d="M2107 1665 c-9 -19 -15 -35 -12 -35 7 0 37 61 33 66 -3 2 -12 -12
-21 -31z"/>
<path d="M1222 1645 c-30 -62 -27 -71 4 -12 14 27 24 51 22 53 -3 2 -14 -17
-26 -41z"/>
<path d="M2542 1655 c-17 -37 -14 -45 4 -12 9 16 14 31 11 33 -2 2 -9 -7 -15
-21z"/>
<path d="M136 1633 c-6 -14 -5 -15 5 -6 7 7 10 15 7 18 -3 3 -9 -2 -12 -12z"/>
<path d="M767 1615 c-24 -50 -20 -58 4 -12 11 22 19 41 17 43 -3 2 -12 -12
-21 -31z"/>
<path d="M250 1610 c-13 -9 -13 -10 0 -10 13 0 13 -1 0 -10 -8 -5 -10 -10 -5
-10 6 0 17 5 25 10 11 7 11 10 2 10 -7 0 -10 5 -7 10 8 12 4 12 -15 0z"/>
<path d="M2066 1585 c-9 -26 -7 -32 5 -12 6 10 9 21 6 23 -2 3 -7 -2 -11 -11z"/>
<path d="M1842 1565 c-17 -37 -14 -45 4 -12 9 16 14 31 11 33 -2 2 -9 -7 -15
-21z"/>
<path d="M169 1573 c-1 -5 -1 -11 -1 -14 2 -11 -52 -5 -60 6 -5 6 -8 5 -8 -3
0 -7 7 -15 16 -19 13 -5 13 -8 2 -15 -10 -8 -10 -9 2 -5 8 2 14 10 12 17 -1 7
4 9 15 6 10 -3 25 -1 33 4 13 9 13 10 0 10 -13 0 -13 1 0 10 10 6 11 10 3 10
-7 0 -14 -3 -14 -7z"/>
<path d="M326 1561 c-4 -5 -2 -12 3 -15 5 -4 12 -2 15 3 4 5 2 12 -3 15 -5 4
-12 2 -15 -3z"/>
<path d="M242 1477 c-23 -24 -39 -46 -35 -50 7 -8 93 71 93 85 0 17 -17 6 -58
-35z m48 30 c0 -2 -10 -12 -22 -23 l-23 -19 19 23 c18 21 26 27 26 19z m-50
-51 c0 -2 -8 -10 -17 -17 -16 -13 -17 -12 -4 4 13 16 21 21 21 13z"/>
<path d="M1365 1489 c-4 -6 -5 -12 -2 -15 2 -3 7 2 10 11 7 17 1 20 -8 4z"/>
<path d="M1787 1445 c-24 -50 -20 -58 4 -12 11 22 19 41 17 43 -3 2 -12 -12
-21 -31z"/>
<path d="M307 1422 c-56 -57 -51 -80 5 -25 32 31 42 36 56 27 9 -6 17 -21 17
-33 1 -26 15 -31 28 -9 12 18 -8 52 -24 42 -5 -3 -9 -1 -9 3 0 5 -6 17 -13 26
-11 16 -17 13 -60 -31z m13 -7 c-24 -25 -46 -45 -49 -45 -3 0 15 20 39 45 24
25 46 45 49 45 3 0 -15 -20 -39 -45z"/>
<path d="M1346 1443 c-6 -14 -5 -15 5 -6 7 7 10 15 7 18 -3 3 -9 -2 -12 -12z"/>
<path d="M1307 1365 c-24 -50 -20 -58 4 -12 11 22 19 41 17 43 -3 2 -12 -12
-21 -31z"/>
<path d="M2400 1349 c-12 -23 -20 -43 -18 -45 3 -2 14 17 26 41 27 56 20 60
-8 4z"/>
<path d="M650 1364 c0 -5 82 -90 183 -189 l182 -180 -180 185 c-99 101 -181
186 -182 189 -2 2 -3 0 -3 -5z"/>
<path d="M1947 1325 c-24 -50 -20 -58 4 -12 11 22 19 41 17 43 -3 2 -12 -12
-21 -31z"/>
<path d="M460 1344 c0 -4 16 -24 35 -45 19 -22 35 -33 35 -27 0 9 4 8 10 -2 5
-8 10 -10 10 -5 0 6 -17 28 -38 48 -36 35 -52 45 -52 31z m46 -36 l29 -33 -32
29 c-31 28 -38 36 -30 36 2 0 16 -15 33 -32z"/>
<path d="M395 1290 c-18 -20 -15 -50 5 -50 6 0 8 -5 5 -10 -4 -6 -2 -9 3 -8 6
2 21 -9 34 -25 l24 -27 39 42 40 43 -39 -36 -38 -37 -36 40 c-27 30 -32 42
-23 51 9 9 16 9 29 -1 9 -7 24 -15 32 -19 8 -4 18 -11 21 -16 4 -5 9 -5 13 2
4 6 -4 13 -19 17 -13 3 -23 10 -20 14 5 8 -32 40 -46 40 -3 0 -14 -9 -24 -20z"/>
<path d="M1268 1303 c7 -3 16 -2 19 1 4 3 -2 6 -13 5 -11 0 -14 -3 -6 -6z"/>
<path d="M1716 1293 c-6 -14 -5 -15 5 -6 7 7 10 15 7 18 -3 3 -9 -2 -12 -12z"/>
<path d="M660 1259 c0 -5 -4 -8 -8 -5 -5 3 -39 -26 -76 -63 -38 -38 -64 -71
-59 -74 5 -3 45 30 88 74 44 43 74 79 67 79 -6 0 -12 -5 -12 -11z"/>
<path d="M1896 1213 c-6 -14 -5 -15 5 -6 7 7 10 15 7 18 -3 3 -9 -2 -12 -12z"/>
<path d="M1632 1115 c-17 -37 -14 -45 4 -12 9 16 14 31 11 33 -2 2 -9 -7 -15
-21z"/>
<path d="M700 1064 c-36 -36 -56 -62 -45 -58 18 7 19 6 6 -12 -8 -10 8 3 37
30 28 27 49 53 47 56 -3 4 4 15 15 25 18 17 25 14 21 -8 -1 -5 3 -6 9 -2 5 3
10 1 10 -4 0 -6 -5 -11 -11 -11 -5 0 -8 -4 -5 -9 3 -5 -1 -12 -10 -15 -10 -4
-13 -13 -9 -27 5 -14 3 -19 -3 -15 -12 7 -26 -29 -17 -44 4 -6 14 -5 29 1 22
10 23 13 10 38 -16 30 -18 45 -5 37 4 -3 13 6 20 21 10 21 9 29 -5 44 -9 11
-20 19 -23 19 -4 0 -36 -29 -71 -66z m10 -19 c-18 -19 -36 -32 -39 -29 -5 5
57 63 68 64 3 0 -10 -16 -29 -35z m64 -54 c3 -5 -1 -11 -9 -15 -9 -3 -15 0
-15 9 0 16 16 20 24 6z"/>
<path d="M1846 1115 c-9 -26 -7 -32 5 -12 6 10 9 21 6 23 -2 3 -7 -2 -11 -11z"/>
<path d="M2245 1019 c-4 -6 -5 -12 -2 -15 2 -3 7 2 10 11 7 17 1 20 -8 4z"/>
<path d="M807 999 c7 -7 15 -10 18 -7 3 3 -2 9 -12 12 -14 6 -15 5 -6 -5z"/>
<path d="M860 995 c0 -8 6 -15 13 -15 13 -1 -17 -21 -30 -21 -11 0 -83 -71
-83 -81 0 -20 25 -3 88 58 37 36 62 63 55 60 -6 -4 -14 -2 -18 4 -9 15 -25 12
-25 -5z m-20 -48 c0 -2 -17 -19 -37 -38 l-38 -34 34 38 c33 34 41 42 41 34z"/>
<path d="M1030 976 c0 -2 8 -10 18 -17 15 -13 16 -12 3 4 -13 16 -21 21 -21
13z"/>
<path d="M1556 955 c-9 -26 -7 -32 5 -12 6 10 9 21 6 23 -2 3 -7 -2 -11 -11z"/>
<path d="M1070 937 c0 -1 35 -36 78 -77 l77 -75 -75 78 c-69 71 -80 82 -80 74z"/>
<path d="M2196 913 c-6 -14 -5 -15 5 -6 7 7 10 15 7 18 -3 3 -9 -2 -12 -12z"/>
<path d="M910 892 c0 -4 16 -23 35 -42 l35 -34 -35 -35 -35 -35 -32 30 c-26
23 -29 24 -13 4 54 -66 48 -65 93 -15 23 24 42 48 42 53 0 10 -73 82 -83 82
-4 0 -7 -4 -7 -8z m50 -37 c19 -19 32 -35 29 -35 -3 0 -20 16 -39 35 -19 19
-32 35 -29 35 3 0 20 -16 39 -35z m20 -58 c0 -2 -17 -19 -37 -38 l-38 -34 34
38 c33 34 41 42 41 34z"/>
<path d="M1717 834 c-37 -74 -33 -83 4 -10 17 32 29 60 27 62 -2 2 -16 -21
-31 -52z"/>
<path d="M2172 865 c-17 -37 -14 -45 4 -12 9 16 14 31 11 33 -2 2 -9 -7 -15
-21z"/>
<path d="M849 844 c-7 -9 -14 -23 -15 -31 -2 -13 0 -12 15 1 22 20 35 20 51 1
7 -8 18 -15 24 -14 7 0 6 2 -2 6 -6 2 -10 9 -6 14 3 5 2 9 -3 8 -4 -1 -19 2
-31 6 -18 6 -20 10 -10 16 8 5 9 9 2 9 -6 0 -18 -7 -25 -16z"/>
<path d="M1006 721 c-25 -26 -43 -50 -39 -54 4 -4 26 12 50 35 l43 42 16 -22
c8 -12 20 -20 25 -17 5 4 9 -1 9 -9 0 -9 -3 -15 -7 -13 -10 3 -16 -12 -7 -15
4 -2 12 5 18 14 9 15 4 24 -25 52 l-36 35 -47 -48z m54 36 c0 -2 -15 -16 -32
-33 l-33 -29 29 33 c28 30 36 37 36 29z"/>
<path d="M1240 766 c0 -2 8 -10 18 -17 15 -13 16 -12 3 4 -13 16 -21 21 -21
13z"/>
<path d="M2106 725 c-9 -26 -7 -32 5 -12 6 10 9 21 6 23 -2 3 -7 -2 -11 -11z"/>
<path d="M1335 673 c33 -35 62 -63 66 -63 6 0 29 46 29 58 -1 4 -8 -6 -16 -22
l-16 -28 -61 58 -62 59 60 -62z"/>
<path d="M1145 630 c-36 -36 -62 -69 -59 -73 4 -4 15 0 25 9 12 11 25 14 36 9
10 -5 21 -7 26 -7 4 1 6 -1 5 -5 0 -5 2 -16 7 -26 5 -12 1 -24 -10 -37 -24
-27 -11 -38 16 -14 15 13 19 26 15 46 -5 26 -3 28 27 28 24 0 28 3 17 10 -8 5
-34 10 -57 10 -27 0 -43 5 -43 12 0 7 20 33 45 58 27 28 40 47 31 47 -8 0 -44
-30 -81 -67z m75 57 c0 -1 -30 -32 -67 -67 l-68 -65 65 68 c60 62 70 72 70 64z
m-20 -181 c0 -2 -8 -10 -17 -17 -16 -13 -17 -12 -4 4 13 16 21 21 21 13z"/>
<path d="M2020 539 c-12 -23 -20 -43 -18 -45 3 -2 14 17 26 41 27 56 20 60 -8
4z"/>
<path d="M1567 515 c-24 -50 -20 -58 4 -12 11 22 19 41 17 43 -3 2 -12 -12
-21 -31z"/>
<path d="M1339 475 c39 -35 43 -47 27 -74 -6 -9 -5 -12 5 -9 28 9 21 40 -17
79 -21 21 -42 39 -46 39 -4 0 10 -16 31 -35z"/>
<path d="M1256 471 c-29 -31 -22 -50 10 -26 18 15 18 15 -1 8 -18 -6 -18 -4 4
20 33 36 22 34 -13 -2z"/>
<path d="M1550 457 c0 -2 15 -16 33 -33 l32 -29 -29 33 c-28 30 -36 37 -36 29z"/>
<path d="M1220 428 c0 -8 92 -99 96 -95 2 2 -19 25 -46 52 -28 27 -50 47 -50
43z"/>
<path d="M1305 410 c10 -11 20 -20 23 -20 3 0 -3 9 -13 20 -10 11 -20 20 -23
20 -3 0 3 -9 13 -20z"/>
<path d="M1439 393 c-19 -3 -26 -9 -22 -21 2 -10 -8 -29 -26 -46 -37 -36 -38
-42 -6 -72 14 -13 25 -19 25 -14 0 5 -4 12 -10 15 -17 11 -11 41 13 63 27 26
40 27 57 7 7 -8 17 -12 22 -9 5 3 2 14 -7 24 -9 10 -17 27 -18 39 -1 11 -1 20
-2 20 0 -1 -12 -4 -26 -6z m21 -25 c0 -6 8 -21 18 -32 17 -21 17 -21 -4 -3
-28 23 -32 22 -74 -15 l-35 -33 38 41 c20 22 34 43 31 47 -4 4 0 7 9 7 10 0
17 -5 17 -12z"/>
<path d="M1670 337 c0 -1 35 -36 78 -77 l77 -75 -75 78 c-69 71 -80 82 -80 74z"/>
<path d="M1491 249 c-18 -17 -34 -40 -36 -51 -4 -20 -4 -20 15 -3 11 10 18 21
15 25 -5 7 43 56 52 53 19 -5 61 -58 56 -72 -4 -14 -3 -14 7 -1 9 13 11 12 8
-4 -4 -26 -49 -27 -80 -1 -21 18 -21 18 2 -8 27 -31 66 -33 84 -5 9 14 3 25
-29 58 -21 22 -44 40 -51 40 -6 0 -26 -14 -43 -31z"/>
<path d="M1506 138 c15 -20 30 -35 33 -32 3 2 -10 19 -28 37 l-34 32 29 -37z"/>
<path d="M1616 111 c-26 -27 -44 -51 -39 -54 10 -6 79 59 85 78 2 6 7 9 11 7
5 -1 6 2 2 8 -8 14 -5 16 -59 -39z m34 16 c0 -2 -17 -19 -37 -38 l-38 -34 34
38 c33 34 41 42 41 34z"/>
<path d="M1680 121 c0 -13 26 -32 33 -24 4 3 7 -1 7 -10 0 -9 -3 -16 -7 -14
-5 1 -9 -1 -10 -5 -5 -15 11 -11 21 5 7 12 5 21 -8 36 -20 22 -36 27 -36 12z"/>
</g>
</svg>
