<svg data-v-423bf9ae="" xmlns="http://www.w3.org/2000/svg" viewBox="0 0 694 90" class="iconLeft"><!----><!----><!----><g data-v-423bf9ae="" id="4c7e1076-e113-4aff-b6af-e82683bbf8cf" fill="white" transform="matrix(6.564551175737441,0,0,6.564551175737441,110.9033616865899,-12.833696913131703)"><path d="M0.11 6.86L0.05 4.67L7.65 4.67L7.42 6.98L6.77 6.88L6.51 5.30L4.42 5.30L4.42 12.39L5.69 12.62L5.60 13.17L1.91 13.17L1.96 12.67L3.12 12.35L3.12 5.30L1.09 5.30L0.74 6.95L0.11 6.86ZM13.77 9.07L13.77 9.07L13.77 12.39L14.76 12.63L14.68 13.17L11.61 13.17L11.69 12.67L12.61 12.39L12.64 9.26L12.64 9.21L12.64 9.21Q12.64 8.86 12.53 8.60L12.53 8.60L12.53 8.60Q12.42 8.35 12.24 8.21L12.24 8.21L12.24 8.21Q12.07 8.07 11.87 8.01L11.87 8.01L11.87 8.01Q11.68 7.94 11.46 7.94L11.46 7.94L11.46 7.94Q10.74 7.94 10.14 8.56L10.14 8.56L10.14 12.38L11.14 12.62L11.05 13.17L7.88 13.17L7.95 12.63L9.00 12.38L9.00 5.53L7.91 5.17L7.98 4.65L9.97 4.49L10.14 4.66L10.14 7.36L10.02 8.08L10.10 8.08L10.10 8.08Q11.06 7.01 12.11 7.01L12.11 7.01L12.11 7.01Q12.49 7.01 12.77 7.11L12.77 7.11L12.77 7.11Q13.06 7.20 13.29 7.42L13.29 7.42L13.29 7.42Q13.53 7.64 13.65 8.06L13.65 8.06L13.65 8.06Q13.77 8.47 13.77 9.07ZM19.88 10.09L19.88 10.09L16.57 10.12L16.57 10.12Q16.59 10.55 16.72 10.95L16.72 10.95L16.72 10.95Q16.84 11.35 17.07 11.70L17.07 11.70L17.07 11.70Q17.29 12.05 17.66 12.26L17.66 12.26L17.66 12.26Q18.03 12.48 18.48 12.48L18.48 12.48L18.52 12.48L18.52 12.48Q18.81 12.48 18.98 12.46L18.98 12.46L18.98 12.46Q19.14 12.45 19.42 12.36L19.42 12.36L19.42 12.36Q19.70 12.27 20.03 12.10L20.03 12.10L20.18 12.46L20.18 12.46Q19.77 12.89 19.18 13.14L19.18 13.14L19.18 13.14Q18.59 13.38 17.93 13.38L17.93 13.38L17.93 13.38Q17.44 13.38 16.98 13.17L16.98 13.17L16.98 13.17Q16.53 12.97 16.16 12.59L16.16 12.59L16.16 12.59Q15.79 12.22 15.57 11.61L15.57 11.61L15.57 11.61Q15.35 11.00 15.35 10.25L15.35 10.25L15.35 10.25Q15.35 9.50 15.61 8.88L15.61 8.88L15.61 8.88Q15.86 8.26 16.27 7.87L16.27 7.87L16.27 7.87Q16.67 7.47 17.17 7.25L17.17 7.25L17.17 7.25Q17.66 7.03 18.16 7.03L18.16 7.03L18.16 7.03Q18.95 7.03 19.47 7.59L19.47 7.59L19.47 7.59Q20.00 8.16 20.00 9.19L20.00 9.19L20.00 9.19Q20.00 9.59 19.88 10.09ZM16.58 9.59L16.58 9.59L18.73 9.45L18.73 9.45Q18.78 9.30 18.78 8.98L18.78 8.98L18.78 8.98Q18.78 7.70 17.83 7.70L17.83 7.70L17.83 7.70Q17.37 7.70 17.00 8.18L17.00 8.18L17.00 8.18Q16.63 8.66 16.58 9.59ZM24.17 13.24L23.30 13.36L21.40 8.00L20.57 7.72L20.64 7.21L23.69 7.21L23.64 7.71L22.64 7.99L23.93 11.85L25.24 8.00L24.14 7.72L24.24 7.21L26.86 7.21L26.78 7.71L26.03 7.99L24.17 13.24ZM27.23 13.17L27.32 12.63L28.36 12.38L28.36 8.18L27.32 7.80L27.41 7.28L29.33 7.12L29.50 7.29L29.50 12.38L30.59 12.62L30.52 13.17L27.23 13.17ZM28.86 4.24L28.86 4.24L28.86 4.24Q29.20 4.24 29.45 4.47L29.45 4.47L29.45 4.47Q29.70 4.70 29.70 5.02L29.70 5.02L29.70 5.02Q29.70 5.36 29.45 5.61L29.45 5.61L29.45 5.61Q29.20 5.86 28.86 5.86L28.86 5.86L28.86 5.86Q28.53 5.86 28.29 5.61L28.29 5.61L28.29 5.61Q28.05 5.36 28.05 5.01L28.05 5.01L28.05 5.01Q28.05 4.68 28.29 4.46L28.29 4.46L28.29 4.46Q28.53 4.24 28.86 4.24ZM35.16 8.57L35.16 8.57L35.16 8.57Q34.77 8.23 34.41 8.23L34.41 8.23L34.41 8.23Q34.09 8.23 33.76 8.62L33.76 8.62L33.76 8.62Q33.42 9.02 33.32 9.72L33.32 9.72L33.32 12.35L34.90 12.58L34.83 13.17L31.06 13.17L31.14 12.67L32.18 12.39L32.18 8.20L31.07 7.87L31.16 7.35L33.11 7.09L33.25 7.25L33.14 8.83L33.27 8.83L33.27 8.83Q33.53 7.94 33.97 7.46L33.97 7.46L33.97 7.46Q34.42 6.98 34.88 6.98L34.88 6.98L34.88 6.98Q35.24 6.98 35.47 7.21L35.47 7.21L35.47 7.21Q35.70 7.44 35.70 7.75L35.70 7.75L35.70 7.75Q35.69 8.20 35.16 8.57ZM39.32 11.89L39.32 10.25L39.32 10.25Q38.26 10.45 37.81 10.82L37.81 10.82L37.81 10.82Q37.37 11.18 37.37 11.70L37.37 11.70L37.37 11.70Q37.37 12.00 37.57 12.25L37.57 12.25L37.57 12.25Q37.78 12.50 38.14 12.50L38.14 12.50L38.14 12.50Q38.46 12.50 38.79 12.30L38.79 12.30L38.79 12.30Q39.12 12.11 39.32 11.89L39.32 11.89ZM40.52 13.30L40.52 13.30L40.52 13.30Q39.98 13.30 39.72 13.02L39.72 13.02L39.72 13.02Q39.46 12.74 39.46 12.38L39.46 12.38L39.46 12.28L39.38 12.28L39.38 12.28Q39.29 12.43 39.16 12.60L39.16 12.60L39.16 12.60Q39.03 12.76 38.80 12.94L38.80 12.94L38.80 12.94Q38.58 13.12 38.24 13.23L38.24 13.23L38.24 13.23Q37.91 13.34 37.51 13.34L37.51 13.34L37.51 13.34Q36.94 13.34 36.56 12.98L36.56 12.98L36.56 12.98Q36.17 12.63 36.17 12.02L36.17 12.02L36.17 12.02Q36.17 11.63 36.35 11.28L36.35 11.28L36.35 11.28Q36.53 10.92 36.90 10.62L36.90 10.62L36.90 10.62Q37.27 10.32 37.89 10.12L37.89 10.12L37.89 10.12Q38.51 9.91 39.32 9.86L39.32 9.86L39.32 9.48L39.32 9.48Q39.32 9.11 39.27 8.80L39.27 8.80L39.27 8.80Q39.21 8.50 39.08 8.23L39.08 8.23L39.08 8.23Q38.94 7.96 38.70 7.82L38.70 7.82L38.70 7.82Q38.46 7.68 38.11 7.68L38.11 7.68L38.11 7.68Q37.90 7.68 37.76 7.76L37.76 7.76L37.76 7.76Q37.63 7.84 37.55 8.03L37.55 8.03L37.55 8.03Q37.48 8.21 37.45 8.40L37.45 8.40L37.45 8.40Q37.41 8.60 37.38 8.91L37.38 8.91L37.38 8.91Q37.37 9.06 37.35 9.13L37.35 9.13L37.35 9.13Q37.21 9.13 37.11 9.12L37.11 9.12L37.11 9.12Q37.01 9.11 36.87 9.07L36.87 9.07L36.87 9.07Q36.72 9.04 36.63 8.97L36.63 8.97L36.63 8.97Q36.54 8.89 36.47 8.75L36.47 8.75L36.47 8.75Q36.40 8.61 36.40 8.42L36.40 8.42L36.40 8.42Q36.40 8.07 36.79 7.73L36.79 7.73L36.79 7.73Q37.18 7.39 37.73 7.20L37.73 7.20L37.73 7.20Q38.26 7.01 38.74 7.01L38.74 7.01L38.74 7.01Q39.64 7.01 40.04 7.52L40.04 7.52L40.04 7.52Q40.43 8.03 40.43 9.12L40.43 9.12L40.43 11.61L40.43 11.61Q40.43 12.09 40.58 12.26L40.58 12.26L40.58 12.26Q40.72 12.44 41.19 12.52L41.19 12.52L41.53 12.58L41.45 13.16L41.45 13.16Q41.34 13.17 41.17 13.21L41.17 13.21L41.17 13.21Q41.00 13.25 40.85 13.28L40.85 13.28L40.85 13.28Q40.69 13.30 40.52 13.30ZM44.13 4.66L44.13 12.38L45.21 12.62L45.14 13.17L41.86 13.17L41.94 12.63L42.98 12.38L42.98 5.53L41.90 5.17L41.99 4.65L43.96 4.49L44.13 4.66ZM51.52 8.18L51.52 8.18L51.60 8.18L51.60 8.18Q51.96 7.71 52.49 7.41L52.49 7.41L52.49 7.41Q53.02 7.10 53.63 7.10L53.63 7.10L53.63 7.10Q55.24 7.10 55.24 9.01L55.24 9.01L55.24 12.38L56.18 12.62L56.10 13.16L53.18 13.16L53.24 12.67L54.09 12.39L54.09 9.17L54.09 9.17Q54.09 8.66 53.78 8.32L53.78 8.32L53.78 8.32Q53.48 7.98 52.94 7.98L52.94 7.98L52.94 7.98Q52.53 7.98 52.23 8.16L52.23 8.16L52.23 8.16Q51.93 8.34 51.63 8.66L51.63 8.66L51.63 12.39L52.65 12.63L52.58 13.17L49.55 13.17L49.63 12.67L50.52 12.39L50.52 9.17L50.52 9.17Q50.52 8.64 50.19 8.31L50.19 8.31L50.19 8.31Q49.85 7.98 49.36 7.98L49.36 7.98L49.36 7.98Q48.52 7.98 48.00 8.57L48.00 8.57L48.00 12.39L48.98 12.63L48.91 13.17L45.75 13.17L45.82 12.67L46.85 12.39L46.85 8.25L45.75 7.91L45.82 7.39L47.90 7.11L48.02 7.25L47.90 8.11L47.97 8.11L47.97 8.11Q48.33 7.66 48.87 7.35L48.87 7.35L48.87 7.35Q49.42 7.04 50.02 7.04L50.02 7.04L50.02 7.04Q50.54 7.04 50.96 7.31L50.96 7.31L50.96 7.31Q51.37 7.59 51.52 8.18ZM59.97 11.89L59.97 10.25L59.97 10.25Q58.91 10.45 58.46 10.82L58.46 10.82L58.46 10.82Q58.02 11.18 58.02 11.70L58.02 11.70L58.02 11.70Q58.02 12.00 58.23 12.25L58.23 12.25L58.23 12.25Q58.43 12.50 58.79 12.50L58.79 12.50L58.79 12.50Q59.11 12.50 59.44 12.30L59.44 12.30L59.44 12.30Q59.77 12.11 59.97 11.89L59.97 11.89ZM61.17 13.30L61.17 13.30L61.17 13.30Q60.63 13.30 60.37 13.02L60.37 13.02L60.37 13.02Q60.11 12.74 60.11 12.38L60.11 12.38L60.11 12.28L60.03 12.28L60.03 12.28Q59.94 12.43 59.81 12.60L59.81 12.60L59.81 12.60Q59.68 12.76 59.46 12.94L59.46 12.94L59.46 12.94Q59.23 13.12 58.90 13.23L58.90 13.23L58.90 13.23Q58.56 13.34 58.16 13.34L58.16 13.34L58.16 13.34Q57.59 13.34 57.21 12.98L57.21 12.98L57.21 12.98Q56.82 12.63 56.82 12.02L56.82 12.02L56.82 12.02Q56.82 11.63 57.00 11.28L57.00 11.28L57.00 11.28Q57.18 10.92 57.55 10.62L57.55 10.62L57.55 10.62Q57.92 10.32 58.54 10.12L58.54 10.12L58.54 10.12Q59.17 9.91 59.97 9.86L59.97 9.86L59.97 9.48L59.97 9.48Q59.97 9.11 59.92 8.80L59.92 8.80L59.92 8.80Q59.86 8.50 59.73 8.23L59.73 8.23L59.73 8.23Q59.60 7.96 59.35 7.82L59.35 7.82L59.35 7.82Q59.11 7.68 58.76 7.68L58.76 7.68L58.76 7.68Q58.55 7.68 58.41 7.76L58.41 7.76L58.41 7.76Q58.28 7.84 58.20 8.03L58.20 8.03L58.20 8.03Q58.13 8.21 58.10 8.40L58.10 8.40L58.10 8.40Q58.06 8.60 58.03 8.91L58.03 8.91L58.03 8.91Q58.02 9.06 58.00 9.13L58.00 9.13L58.00 9.13Q57.86 9.13 57.76 9.12L57.76 9.12L57.76 9.12Q57.66 9.11 57.52 9.07L57.52 9.07L57.52 9.07Q57.37 9.04 57.28 8.97L57.28 8.97L57.28 8.97Q57.19 8.89 57.12 8.75L57.12 8.75L57.12 8.75Q57.05 8.61 57.05 8.42L57.05 8.42L57.05 8.42Q57.05 8.07 57.44 7.73L57.44 7.73L57.44 7.73Q57.83 7.39 58.38 7.20L58.38 7.20L58.38 7.20Q58.91 7.01 59.39 7.01L59.39 7.01L59.39 7.01Q60.29 7.01 60.69 7.52L60.69 7.52L60.69 7.52Q61.09 8.03 61.09 9.12L61.09 9.12L61.09 11.61L61.09 11.61Q61.09 12.09 61.23 12.26L61.23 12.26L61.23 12.26Q61.37 12.44 61.84 12.52L61.84 12.52L62.18 12.58L62.10 13.16L62.10 13.16Q62.00 13.17 61.82 13.21L61.82 13.21L61.82 13.21Q61.65 13.25 61.50 13.28L61.50 13.28L61.50 13.28Q61.35 13.30 61.17 13.30ZM66.64 8.57L66.64 8.57L66.64 8.57Q66.25 8.23 65.89 8.23L65.89 8.23L65.89 8.23Q65.57 8.23 65.24 8.62L65.24 8.62L65.24 8.62Q64.90 9.02 64.80 9.72L64.80 9.72L64.80 12.35L66.38 12.58L66.31 13.17L62.54 13.17L62.62 12.67L63.66 12.39L63.66 8.20L62.55 7.87L62.64 7.35L64.59 7.09L64.73 7.25L64.62 8.83L64.75 8.83L64.75 8.83Q65.01 7.94 65.45 7.46L65.45 7.46L65.45 7.46Q65.90 6.98 66.36 6.98L66.36 6.98L66.36 6.98Q66.72 6.98 66.95 7.21L66.95 7.21L66.95 7.21Q67.18 7.44 67.18 7.75L67.18 7.75L67.18 7.75Q67.17 8.20 66.64 8.57ZM69.85 10.21L69.85 10.08L71.62 7.87L70.70 7.58L70.79 7.07L73.69 7.07L73.60 7.57L72.57 7.85L70.96 9.84L71.50 10.53L71.50 10.53Q71.67 10.74 71.89 11.03L71.89 11.03L71.89 11.03Q72.11 11.33 72.23 11.48L72.23 11.48L72.23 11.48Q72.35 11.64 72.52 11.85L72.52 11.85L72.52 11.85Q72.69 12.05 72.81 12.15L72.81 12.15L72.81 12.15Q72.93 12.26 73.08 12.37L73.08 12.37L73.08 12.37Q73.23 12.48 73.39 12.53L73.39 12.53L73.39 12.53Q73.55 12.58 73.73 12.61L73.73 12.61L73.99 12.65L73.92 13.17L73.92 13.17Q73.51 13.31 73.10 13.31L73.10 13.31L73.10 13.31Q72.77 13.31 72.49 13.20L72.49 13.20L72.49 13.20Q72.21 13.10 71.90 12.81L71.90 12.81L71.90 12.81Q71.59 12.52 71.32 12.19L71.32 12.19L71.32 12.19Q71.05 11.85 70.57 11.21L70.57 11.21L69.85 10.21ZM67.42 13.17L67.50 12.63L68.54 12.38L68.54 5.60L67.46 5.24L67.55 4.72L69.51 4.56L69.69 4.73L69.69 5.12L69.69 12.38L70.77 12.62L70.70 13.17L67.42 13.17ZM75.81 5.74L75.81 5.74L76.17 5.74L76.17 7.23L78.10 7.23L78.05 7.83L76.17 7.83L76.14 10.94L76.14 10.99L76.14 10.99Q76.14 11.74 76.37 12.04L76.37 12.04L76.37 12.04Q76.61 12.33 77.14 12.33L77.14 12.33L77.14 12.33Q77.37 12.33 77.62 12.24L77.62 12.24L77.62 12.24Q77.86 12.14 78.00 12.05L78.00 12.05L78.13 11.96L78.27 12.33L78.27 12.33Q77.95 12.79 77.47 13.06L77.47 13.06L77.47 13.06Q76.99 13.33 76.43 13.33L76.43 13.33L76.43 13.33Q76.09 13.33 75.84 13.24L75.84 13.24L75.84 13.24Q75.58 13.15 75.38 12.94L75.38 12.94L75.38 12.94Q75.18 12.73 75.08 12.34L75.08 12.34L75.08 12.34Q74.97 11.96 74.97 11.40L74.97 11.40L74.97 11.19L74.99 7.82L74.12 7.82L74.12 7.45L74.12 7.45Q74.98 6.77 75.81 5.74ZM83.21 10.09L83.21 10.09L79.91 10.12L79.91 10.12Q79.93 10.55 80.05 10.95L80.05 10.95L80.05 10.95Q80.18 11.35 80.40 11.70L80.40 11.70L80.40 11.70Q80.62 12.05 80.99 12.26L80.99 12.26L80.99 12.26Q81.36 12.48 81.81 12.48L81.81 12.48L81.85 12.48L81.85 12.48Q82.15 12.48 82.31 12.46L82.31 12.46L82.31 12.46Q82.48 12.45 82.76 12.36L82.76 12.36L82.76 12.36Q83.04 12.27 83.36 12.10L83.36 12.10L83.51 12.46L83.51 12.46Q83.10 12.89 82.52 13.14L82.52 13.14L82.52 13.14Q81.93 13.38 81.27 13.38L81.27 13.38L81.27 13.38Q80.77 13.38 80.32 13.17L80.32 13.17L80.32 13.17Q79.86 12.97 79.50 12.59L79.50 12.59L79.50 12.59Q79.13 12.22 78.91 11.61L78.91 11.61L78.91 11.61Q78.69 11.00 78.69 10.25L78.69 10.25L78.69 10.25Q78.69 9.50 78.94 8.88L78.94 8.88L78.94 8.88Q79.19 8.26 79.60 7.87L79.60 7.87L79.60 7.87Q80.01 7.47 80.50 7.25L80.50 7.25L80.50 7.25Q80.99 7.03 81.50 7.03L81.50 7.03L81.50 7.03Q82.28 7.03 82.81 7.59L82.81 7.59L82.81 7.59Q83.33 8.16 83.33 9.19L83.33 9.19L83.33 9.19Q83.33 9.59 83.21 10.09ZM79.92 9.59L79.92 9.59L82.07 9.45L82.07 9.45Q82.11 9.30 82.11 8.98L82.11 8.98L82.11 8.98Q82.11 7.70 81.16 7.70L81.16 7.70L81.16 7.70Q80.71 7.70 80.34 8.18L80.34 8.18L80.34 8.18Q79.97 8.66 79.92 9.59ZM88.26 8.57L88.26 8.57L88.26 8.57Q87.86 8.23 87.51 8.23L87.51 8.23L87.51 8.23Q87.19 8.23 86.85 8.62L86.85 8.62L86.85 8.62Q86.52 9.02 86.41 9.72L86.41 9.72L86.41 12.35L87.99 12.58L87.92 13.17L84.15 13.17L84.23 12.67L85.27 12.39L85.27 8.20L84.16 7.87L84.25 7.35L86.21 7.09L86.34 7.25L86.24 8.83L86.37 8.83L86.37 8.83Q86.63 7.94 87.07 7.46L87.07 7.46L87.07 7.46Q87.51 6.98 87.97 6.98L87.97 6.98L87.97 6.98Q88.33 6.98 88.56 7.21L88.56 7.21L88.56 7.21Q88.79 7.44 88.79 7.75L88.79 7.75L88.79 7.75Q88.79 8.20 88.26 8.57Z"></path></g><!----><g data-v-423bf9ae="" id="c0ea0572-135c-4c9a-9b8d-31487b232641" transform="matrix(2.4008743418521963,0,0,2.4008743418521963,-15.92881425162497,-0.6556091011403282)" stroke="none" fill="white"><circle cx="25.648" cy="19.732" r="3.435"></circle><circle cx="25.648" cy="2.484" r="2.016"></circle><path d="M28.194 8.692l-2.546-2.736-2.544 2.736.457.423 1.643-.88v6.607h.888V8.234l1.644.881z"></path><circle cx="14.562" cy="6.52" r="2.015"></circle><path d="M20.501 9.639l-3.709-.46-.188 3.732.621.03.695-1.73 4.247 5.061.68-.571-4.248-5.061 1.827-.382z"></path><circle cx="8.663" cy="16.736" r="2.015"></circle><path d="M15.218 15.309l-3.136 2.031 2.251 2.981.498-.377-.581-1.772 6.507 1.149.155-.876-6.508-1.149 1.154-1.465zM9.705 26.609a2.015 2.015 0 0 1 2.752.738 2.015 2.015 0 1 1-3.49 2.014 2.012 2.012 0 0 1 .738-2.752zM14.815 23.05l-1.098 3.569 3.641.835.142-.604-1.585-.984 5.722-3.305-.445-.771-5.722 3.304-.06-1.862zM17.854 35.247a2.022 2.022 0 0 1 2.583-1.204 2.021 2.021 0 0 1 1.206 2.588 2.018 2.018 0 0 1-3.789-1.384zM19.481 29.235l1.456 3.443 3.325-1.705-.283-.553-1.844.265 2.261-6.207-.837-.305-2.261 6.208-1.244-1.388z"></path><g><path d="M29.651 36.63a2.022 2.022 0 0 1 1.205-2.587 2.02 2.02 0 0 1 2.585 1.203 2.019 2.019 0 0 1-1.204 2.587 2.02 2.02 0 0 1-2.586-1.203zM27.033 30.973l3.326 1.705 1.453-3.443-.57-.242-1.244 1.386-2.261-6.206-.834.305 2.26 6.211-1.847-.269z"></path></g><g><path d="M39.579 30.104a2.016 2.016 0 1 1 2.01-3.496 2.016 2.016 0 0 1-2.01 3.496zM33.936 27.454l3.643-.835-1.098-3.569-.594.182-.062 1.862-5.721-3.304-.445.771 5.724 3.305-1.584.985z"></path></g><g><path d="M42.986 18.722a2.014 2.014 0 0 1-2.337-1.634 2.014 2.014 0 0 1 3.967-.699 2.01 2.01 0 0 1-1.63 2.333zM36.963 20.321l2.255-2.98-3.14-2.03-.338.52 1.152 1.466-6.508 1.148.158.876 6.502-1.149-.577 1.773z"></path></g><g><path d="M38.278 7.814a2.011 2.011 0 0 1-2.837.25 2.015 2.015 0 0 1 2.587-3.089 2.01 2.01 0 0 1 .25 2.839zM34.693 12.911l-.188-3.732-3.708.46.077.619 1.822.383-4.244 5.06.678.571 4.247-5.061.695 1.73z"></path></g></g><!----></svg>